name C:\Users\r0593348\3dpredictsim\Results\Batchsim_tmt_linear\Pog_s1_tmt_aCst_d00_k2000_ig24_act.mot
datacolumns 128
datarows 4
range 1.19572146 1.23159311
endheader
time	pelvis_tilt	pelvis_list	pelvis_rotation	pelvis_tx	pelvis_ty	pelvis_tz	hip_flexion_l	hip_adduction_l	hip_rotation_l	hip_flexion_r	hip_adduction_r	hip_rotation_r	knee_angle_l	knee_angle_r	ankle_angle_l	ankle_angle_r	subtalar_angle_l	subtalar_angle_r	tmt_angle_l	tmt_angle_r	mtp_angle_l	mtp_angle_r	lumbar_extension	lumbar_bending	lumbar_rotation	arm_flex_l	arm_add_l	arm_rot_l	arm_flex_r	arm_add_r	arm_rot_r	elbow_flex_l	elbow_flex_r	pro_sup_l	pro_sup_r	glut_med1_l/activation	glut_med2_l/activation	glut_med3_l/activation	glut_min1_l/activation	glut_min2_l/activation	glut_min3_l/activation	semimem_l/activation	semiten_l/activation	bifemlh_l/activation	bifemsh_l/activation	sar_l/activation	add_long_l/activation	add_brev_l/activation	add_mag1_l/activation	add_mag2_l/activation	add_mag3_l/activation	tfl_l/activation	pect_l/activation	grac_l/activation	glut_max1_l/activation	glut_max2_l/activation	glut_max3_l/activation	iliacus_l/activation	psoas_l/activation	quad_fem_l/activation	gem_l/activation	peri_l/activation	rect_fem_l/activation	vas_med_l/activation	vas_int_l/activation	vas_lat_l/activation	med_gas_l/activation	lat_gas_l/activation	soleus_l/activation	tib_post_l/activation	flex_dig_l/activation	flex_hal_l/activation	tib_ant_l/activation	per_brev_l/activation	per_long_l/activation	per_tert_l/activation	ext_dig_l/activation	ext_hal_l/activation	ercspn_l/activation	intobl_l/activation	extobl_l/activation	glut_med1_r/activation	glut_med2_r/activation	glut_med3_r/activation	glut_min1_r/activation	glut_min2_r/activation	glut_min3_r/activation	semimem_r/activation	semiten_r/activation	bifemlh_r/activation	bifemsh_r/activation	sar_r/activation	add_long_r/activation	add_brev_r/activation	add_mag1_r/activation	add_mag2_r/activation	add_mag3_r/activation	tfl_r/activation	pect_r/activation	grac_r/activation	glut_max1_r/activation	glut_max2_r/activation	glut_max3_r/activation	iliacus_r/activation	psoas_r/activation	quad_fem_r/activation	gem_r/activation	peri_r/activation	rect_fem_r/activation	vas_med_r/activation	vas_int_r/activation	vas_lat_r/activation	med_gas_r/activation	lat_gas_r/activation	soleus_r/activation	tib_post_r/activation	flex_dig_r/activation	flex_hal_r/activation	tib_ant_r/activation	per_brev_r/activation	per_long_r/activation	per_tert_r/activation	ext_dig_r/activation	ext_hal_r/activation	ercspn_r/activation	intobl_r/activation	extobl_r/activation	
          1.19572146	         -2.93017646	         -1.24368831	          7.47960218	          1.49465183	          0.86095147	         -0.00187101	        -15.09627077	         -1.75728760	          7.95138858	         32.40753208	          1.02631122	         -0.49501500	        -16.73307052	        -16.93859055	         -9.37544555	          8.63190904	         13.45344438	          1.51155278	          0.50110032	          0.01397169	         30.65332896	         -0.09246555	         -0.50238023	         -1.06089129	         -2.56767730	          4.18061775	        -13.49019464	         18.11832912	        -10.43549481	        -13.48425766	          8.86143410	         41.41136917	         17.04538053	         86.51662706	         86.51662706	          0.20149371	          0.08627986	          0.05996437	          0.23475289	          0.14129282	          0.10088242	          0.05000342	          0.05000030	          0.05000028	          0.05000686	          0.10342848	          0.05000019	          0.05000014	          0.05000019	          0.05000052	          0.05000047	          0.19094624	          0.05000074	          0.05000041	          0.05000604	          0.05000238	          0.05000076	          0.35806646	          0.55217308	          0.05000017	          0.05000145	          0.07198009	          0.20935585	          0.10058470	          0.10675906	          0.09783947	          0.15532258	          0.23947208	          0.05996445	          0.17122618	          0.19408443	          0.21714014	          0.05000003	          0.35367667	          0.33597903	          0.05000011	          0.19679989	          0.05000015	          0.05000001	          0.05000002	          0.05000004	          0.05000838	          0.05238719	          0.05996404	          0.05000403	          0.05000326	          0.05000570	          0.07191468	          0.05996497	          0.20807113	          0.05995759	          0.05000104	          0.06174285	          0.10967404	          0.16269071	          0.15394791	          0.12111815	          0.05000254	          0.05000587	          0.05996511	          0.05996437	          0.05996510	          0.05979115	          0.06055775	          0.06223920	          0.14135672	          0.05000052	          0.05011506	          0.05000114	          0.06571556	          0.08921348	          0.06596662	          0.05996436	          0.05996438	          0.05996437	          0.05996430	          0.05996524	          0.05996506	          0.48751806	          0.30115201	          0.21689349	          0.13299548	          0.51586218	          0.28619998	          0.05419140	          0.12958628	          0.11647946	
          1.20767868	         -2.92670984	         -1.17180562	          7.66586668	          1.51362673	          0.85971386	         -0.00156966	        -15.37002579	         -1.95723481	          7.73045751	         31.78112475	          1.24434740	         -0.29660179	        -17.80241869	        -16.63197010	        -12.17150849	          8.15123905	         13.89967003	          1.12187326	          0.46022313	          0.01281862	         32.06766019	         -0.08558420	         -0.26370785	         -0.93058271	         -2.65585855	          3.78344398	        -13.54015563	         18.36862755	        -11.76556530	        -13.46644784	          8.68479579	         42.53279924	         17.04587038	         86.51662706	         86.51662706	          0.16801138	          0.07194273	          0.05000045	          0.19574386	          0.11781412	          0.08411883	          0.05000161	          0.05000016	          0.05000017	          0.05000034	          0.08624191	          0.12009102	          0.20677875	          0.05000910	          0.05000424	          0.05000068	          0.15921655	          0.08904900	          0.05731095	          0.05000265	          0.05000165	          0.05000127	          0.29856619	          0.46041793	          0.07789516	          0.05000296	          0.06001934	          0.17456696	          0.10384060	          0.10245290	          0.08337622	          0.12951245	          0.19967874	          0.05000011	          0.14277334	          0.16183325	          0.18105774	          0.21071664	          0.34894282	          0.30837208	          0.47138412	          0.36426386	          0.09095679	          0.05000019	          0.05000024	          0.06415904	          0.05000100	          0.05000123	          0.05000030	          0.05996431	          0.05996383	          0.05000273	          0.05996470	          0.05000063	          0.18362239	          0.05000028	          0.05011298	          0.08624729	          0.15119647	          0.13565972	          0.15820884	          0.15065728	          0.05000018	          0.07190442	          0.05000140	          0.05000054	          0.05000084	          0.18265453	          0.05996440	          0.05189812	          0.11786786	          0.19245289	          0.17602884	          0.07191445	          0.21404101	          0.20965794	          0.18259453	          0.05000004	          0.05000007	          0.05000004	          0.05000002	          0.05000087	          0.05000073	          0.66664200	          0.34634247	          0.18085385	          0.51756619	          0.63015407	          0.47026192	          0.05000007	          0.10805279	          0.09712394	
          1.21963589	         -2.91685915	         -1.10253554	          7.81479474	          1.53283964	          0.85812612	         -0.00127496	        -15.45398057	         -2.11936928	          7.51035445	         31.03068283	          1.47679322	         -0.04372730	        -19.24990566	        -16.94737916	        -14.73037208	          7.48558552	         14.31915775	          0.72913955	          0.38245042	          0.00217135	         32.67745687	         -0.05350770	         -0.01408773	         -0.78204467	         -2.73161089	          3.30989585	        -13.60577410	         18.54393934	        -13.08045801	        -13.45936786	          8.57536513	         43.64864116	         17.02323878	         86.51662706	         86.51662706	          0.14009278	          0.05998810	          0.05996513	          0.16321700	          0.09823690	          0.07014087	          0.06268526	          0.05996507	          0.07190811	          0.05000043	          0.07191116	          0.18337724	          0.28957206	          0.30606782	          0.11768616	          0.17283673	          0.13275939	          0.07425203	          0.05996595	          0.05996554	          0.05997194	          0.07191372	          0.24895312	          0.38390981	          0.07191410	          0.05998846	          0.05996418	          0.14555897	          0.09572919	          0.10342839	          0.06952446	          0.10799122	          0.16649790	          0.05000003	          0.11904853	          0.13494128	          0.15097120	          0.39848565	          0.39423024	          0.30775804	          0.70585830	          0.50233401	          0.28049856	          0.07116332	          0.05996441	          0.05355553	          0.16183326	          0.05000028	          0.14925278	          0.05000014	          0.05000015	          0.05000030	          0.05000044	          0.05000030	          0.15310967	          0.05000008	          0.05000023	          0.07191576	          0.12607225	          0.26739668	          0.24436754	          0.15399038	          0.05000183	          0.05996013	          0.08286850	          0.13474802	          0.13061211	          0.15249341	          0.05000021	          0.05000030	          0.26310805	          0.16047286	          0.14677803	          0.05996450	          0.25730467	          0.25661494	          0.22440388	          0.05000010	          0.05000026	          0.05000002	          0.05956713	          0.05996472	          0.05996442	          0.61536805	          0.39296429	          0.20315167	          0.43156257	          0.58097692	          0.39211805	          0.05000002	          0.09009754	          0.08098475	
          1.23159311	         -2.90236214	         -1.03783830	          7.92359967	          1.55206055	          0.85621113	         -0.00100553	        -15.33366767	         -2.23957101	          7.30430449	         30.11816362	          1.69097922	          0.25465002	        -21.10265690	        -17.57301130	        -16.71063921	          7.04337365	         14.69254413	          0.30907175	          0.29093761	         -0.00586257	         31.75082353	         -0.18833285	          0.22762436	         -0.61474739	         -2.79090618	          2.79433222	        -13.67813192	         18.64359745	        -14.32921614	        -13.47205964	          8.58627092	         44.75226481	         16.94087742	         86.51662706	         86.51662706	          0.28184661	          0.05001990	          0.05000070	          0.13609996	          0.08191290	          0.05848570	          0.09320025	          0.05000081	          0.05995920	          0.05000022	          0.05996200	          0.15290533	          0.24474908	          0.25520829	          0.09813064	          0.14411654	          0.11069869	          0.06191813	          0.05000237	          0.05000368	          0.05000710	          0.05996403	          0.20758433	          0.37843208	          0.05996411	          0.05002035	          0.05000022	          0.12137127	          0.08624369	          0.08624286	          0.05797175	          0.09004620	          0.13883077	          0.05000011	          0.09926612	          0.11251801	          0.12588419	          0.33226893	          0.32872085	          0.25661776	          0.66713670	          0.60186153	          0.23388789	          0.09776613	          0.05000006	          0.05000007	          0.27237540	          0.29204706	          0.38639805	          0.25542283	          0.15630158	          0.24788271	          0.07191422	          0.09040682	          0.12766729	          0.07191433	          0.05000140	          0.05996552	          0.10512273	          0.22296325	          0.20378183	          0.16342456	          0.05000024	          0.05001327	          0.08208095	          0.23892840	          0.19229049	          0.17293750	          0.05000027	          0.05000020	          0.21938726	          0.13380714	          0.30934624	          0.05000016	          0.21454848	          0.23932991	          0.19436660	          0.05000010	          0.05000015	          0.05000005	          0.05000000	          0.05000052	          0.05000035	          0.69094196	          0.32766568	          0.16939379	          0.68370007	          0.68212920	          0.47894189	          0.05592323	          0.08483673	          0.06752743	
